<svg fill="#000000" xmlns="http://www.w3.org/2000/svg"  viewBox="0 0 50 50" width="50px" height="50px"><path d="M 2 14 A 1.0001 1.0001 0 0 0 1.2695312 15.683594 L 7.5859375 22.419922 C 8.5305022 23.426958 9.8503519 24 11.232422 24 L 33 24 C 34.668484 24 36 25.331516 36 27 C 36 28.668484 34.668484 30 33 30 L 18 30 A 1.0001 1.0001 0 0 0 17.269531 31.683594 L 23.585938 38.419922 C 24.530501 39.426958 25.850352 40 27.232422 40 L 35 40 C 42.167516 40 48 34.167516 48 27 C 48 19.832484 42.167516 14 35 14 L 2 14 z M 4.3085938 16 L 35 16 C 41.086484 16 46 20.913516 46 27 C 46 33.086484 41.086484 38 35 38 L 27.232422 38 C 26.402492 38 25.612357 37.657698 25.044922 37.052734 L 20.308594 32 L 33 32 C 35.749516 32 38 29.749516 38 27 C 38 24.250484 35.749516 22 33 22 L 11.232422 22 C 10.402492 22 9.6123572 21.657698 9.0449219 21.052734 L 4.3085938 16 z"/></svg>